<?xml version="1.0" encoding="UTF-8" standalone="no"?>
<svg width="1024px" height="1024px" viewBox="0 0 1024 1024" version="1.1" xmlns="http://www.w3.org/2000/svg" xmlns:xlink="http://www.w3.org/1999/xlink" xmlns:sketch="http://www.bohemiancoding.com/sketch/ns">
    <!-- Generator: Sketch Beta 3.4 (14861) - http://www.bohemiancoding.com/sketch -->
    <title>website_icon</title>
    <desc>Created with Sketch Beta.</desc>
    <defs></defs>
    <g id="Page-1" stroke="none" stroke-width="1" fill="none" fill-rule="evenodd" sketch:type="MSPage">
        <g id="website_icon" sketch:type="MSArtboardGroup">
            <rect id="Rectangle-1" fill="#000000" sketch:type="MSShapeGroup" x="0" y="0" width="1024" height="1024"></rect>
            <path d="M400.280334,562.360352 C401.560344,562.360352 402.720335,562.880348 403.760343,563.920356 L412.880366,573.880381 C405.840313,582.040443 397.300376,588.400395 387.260301,592.96043 C377.220225,597.520464 365.120315,599.800447 350.960208,599.800447 C338.560115,599.800447 327.320199,597.660463 317.240123,593.380431 C307.160047,589.100398 298.560111,583.100443 291.440057,575.380385 C284.320003,567.660327 278.800045,558.400396 274.880015,547.600314 C270.959985,536.800233 269,524.920321 269,511.960224 C269,499.000126 271.099984,487.120215 275.300016,476.320133 C279.500048,465.520052 285.400004,456.240121 293.000061,448.480062 C300.600118,440.720004 309.700051,434.700049 320.30013,430.420016 C330.90021,426.139984 342.600123,424 355.40022,424 C368.040315,424 378.940234,425.959985 388.100303,429.880015 C397.260372,433.800045 405.400311,439.120005 412.520365,445.840056 L404.960346,456.520083 C404.400342,457.320089 403.760346,457.980084 403.040341,458.500088 C402.320335,459.020092 401.280343,459.28009 399.920333,459.28009 C398.880325,459.28009 397.780333,458.900093 396.620325,458.140087 C395.460316,457.380081 394.080326,456.440088 392.480314,455.32008 C390.880302,454.200071 389.000316,453.00008 386.8403,451.72007 C384.680283,450.440061 382.120302,449.24007 379.16028,448.120061 C376.200258,447.000053 372.760283,446.06006 368.840254,445.300054 C364.920224,444.540048 360.400258,444.160051 355.280219,444.160051 C346.08015,444.160051 337.660213,445.740039 330.020155,448.900063 C322.380098,452.060087 315.800147,456.560054 310.280105,462.400098 C304.760063,468.240142 300.460095,475.360089 297.380072,483.760152 C294.300049,492.160215 292.76006,501.560145 292.76006,511.960224 C292.76006,522.680305 294.300049,532.240233 297.380072,540.640297 C300.460095,549.04036 304.660064,556.140307 309.980104,561.940351 C315.300144,567.740395 321.600097,572.160362 328.880152,575.200385 C336.160207,578.240407 344.000149,579.760396 352.400212,579.760396 C357.520251,579.760396 362.120216,579.460398 366.200247,578.860394 C370.280278,578.260389 374.06025,577.320396 377.540276,576.040387 C381.020302,574.760377 384.260278,573.140389 387.260301,571.180374 C390.260323,569.22036 393.280301,566.880377 396.320324,564.160356 C397.680334,562.960347 399.000324,562.360352 400.280334,562.360352 L400.280334,562.360352 Z M529.400662,597.880442 L519.920638,597.880442 C517.840622,597.880442 516.160635,597.560445 514.880625,596.92044 C513.600616,596.280435 512.760622,594.920445 512.360619,592.840429 L509.960613,581.560401 C506.760589,584.440422 503.640612,587.020403 500.600589,589.30042 C497.560566,591.580438 494.36059,593.500423 491.000565,595.060435 C487.640539,596.620447 484.060566,597.800438 480.260537,598.600444 C476.460509,599.40045 472.24054,599.800447 467.600505,599.800447 C462.880469,599.800447 458.460502,599.140452 454.340471,597.820442 C450.22044,596.500432 446.640467,594.520447 443.600444,591.880427 C440.560421,589.240407 438.140439,585.900432 436.340426,581.860401 C434.540412,577.820371 433.640419,573.040407 433.640419,567.520365 C433.640419,562.720329 434.960409,558.100363 437.600429,553.66033 C440.240449,549.220296 444.500417,545.280326 450.380461,541.8403 C456.260506,538.400274 463.960448,535.580295 473.48052,533.380278 C483.000592,531.180262 494.640505,529.920271 508.400609,529.600269 L508.400609,520.120244 C508.400609,510.680173 506.380624,503.540226 502.340593,498.70019 C498.300563,493.860153 492.320608,491.440172 484.400548,491.440172 C479.200509,491.440172 474.820541,492.100167 471.260514,493.420177 C467.700488,494.740187 464.62051,496.220175 462.020491,497.860188 C459.420471,499.5002 457.180488,500.980189 455.300474,502.300199 C453.42046,503.620209 451.560473,504.280204 449.72046,504.280204 C448.280449,504.280204 447.020458,503.900207 445.94045,503.140201 C444.860442,502.380196 444.000448,501.440203 443.360443,500.320194 L439.520434,493.480177 C446.240484,487.000128 453.48043,482.160164 461.240489,478.96014 C469.000547,475.760116 477.600483,474.160128 487.040555,474.160128 C493.840606,474.160128 499.880561,475.280119 505.160601,477.520136 C510.44064,479.760153 514.880607,482.88013 518.480634,486.88016 C522.080662,490.88019 524.800641,495.720154 526.640655,501.400197 C528.480669,507.08024 529.400662,513.320193 529.400662,520.120244 L529.400662,597.880442 Z M473.960521,584.800409 C477.72055,584.800409 481.160524,584.420412 484.280547,583.660406 C487.400571,582.9004 490.340549,581.820408 493.10057,580.420398 C495.860591,579.020387 498.500571,577.3204 501.02059,575.320385 C503.540609,573.32037 506.000591,571.040387 508.400609,568.480367 L508.400609,543.160303 C498.560535,543.480305 490.200597,544.2603 483.320545,545.500309 C476.440493,546.740318 470.840535,548.360306 466.520502,550.360321 C462.20047,552.360336 459.060493,554.720319 457.100478,557.440339 C455.140464,560.16036 454.160471,563.200337 454.160471,566.560363 C454.160471,569.760387 454.680467,572.520366 455.720475,574.840384 C456.760483,577.160401 458.160472,579.060387 459.920486,580.540398 C461.680499,582.020409 463.760483,583.100401 466.160501,583.780406 C468.56052,584.460411 471.1605,584.800409 473.960521,584.800409 L473.960521,584.800409 Z M631.400922,496.360184 C630.440914,498.120197 628.960925,499.000191 626.96091,499.000191 C625.760901,499.000191 624.400911,498.560194 622.8809,497.680187 C621.360889,496.800181 619.500902,495.820188 617.300886,494.74018 C615.100869,493.660172 612.480889,492.660179 609.440866,491.740172 C606.400843,490.820165 602.80087,490.360169 598.640838,490.360169 C595.040811,490.360169 591.800835,490.820165 588.920814,491.740172 C586.040792,492.660179 583.58081,493.92017 581.540795,495.520182 C579.500779,497.120194 577.940791,498.98018 576.860783,501.100196 C575.780775,503.220212 575.240779,505.520195 575.240779,508.000214 C575.240779,511.120237 576.140772,513.720218 577.940786,515.800233 C579.740799,517.880249 582.120782,519.680236 585.080804,521.200247 C588.040826,522.720259 591.400801,524.060249 595.160829,525.220257 C598.920858,526.380266 602.780829,527.620257 606.740859,528.940267 C610.700889,530.260277 614.56086,531.720266 618.320888,533.320278 C622.080917,534.92029 625.440892,536.920275 628.400914,539.320293 C631.360936,541.720311 633.740919,544.660289 635.540932,548.140316 C637.340946,551.620342 638.240939,555.800311 638.240939,560.680348 C638.240939,566.28039 637.240946,571.460351 635.240931,576.220387 C633.240916,580.980423 630.280938,585.100392 626.360909,588.580419 C622.440879,592.060445 617.640915,594.800424 611.960872,596.800439 C606.280829,598.800455 599.720878,599.800447 592.280822,599.800447 C583.800758,599.800447 576.120815,598.420457 569.240764,595.660437 C562.360712,592.900416 556.520755,589.360442 551.720719,585.04041 L556.760732,576.880389 C557.400737,575.840381 558.160731,575.040387 559.040738,574.480383 C559.920744,573.920378 561.080736,573.640381 562.520746,573.640381 C563.960757,573.640381 565.480746,574.200376 567.080758,575.320385 C568.68077,576.440393 570.620756,577.680384 572.900773,579.040394 C575.18079,580.400405 577.940769,581.640395 581.180794,582.760404 C584.420818,583.880412 588.480788,584.440408 593.360825,584.440408 C597.520856,584.440408 601.160829,583.900412 604.280853,582.820404 C607.400876,581.740396 610.000857,580.280407 612.080872,578.440393 C614.160888,576.600379 615.700877,574.480395 616.700884,572.080377 C617.700892,569.680358 618.200888,567.120378 618.200888,564.400357 C618.200888,561.040332 617.300895,558.260352 615.500881,556.060336 C613.700868,553.860319 611.320885,551.980333 608.360863,550.420322 C605.400841,548.86031 602.020866,547.50032 598.220837,546.340311 C594.420809,545.180302 590.540838,543.960311 586.580808,542.680302 C582.620778,541.400292 578.740807,539.940303 574.940778,538.300291 C571.140749,536.660278 567.760775,534.600294 564.800752,532.120275 C561.84073,529.640256 559.460748,526.580279 557.660734,522.940252 C555.860721,519.300224 554.960727,514.880257 554.960727,509.680218 C554.960727,505.040183 555.92072,500.580216 557.840735,496.300184 C559.760749,492.020152 562.560728,488.26018 566.240756,485.020155 C569.920784,481.780131 574.44075,479.20015 579.80079,477.280135 C585.160831,475.360121 591.280785,474.400128 598.160837,474.400128 C606.160897,474.400128 613.340844,475.660119 619.700892,478.180138 C626.06094,480.700157 631.560899,484.160131 636.200934,488.560164 L631.400922,496.360184 Z M755.241237,597.880442 L745.761212,597.880442 C743.681197,597.880442 742.001209,597.560445 740.7212,596.92044 C739.44119,596.280435 738.601196,594.920445 738.201193,592.840429 L735.801187,581.560401 C732.601163,584.440422 729.481186,587.020403 726.441163,589.30042 C723.40114,591.580438 720.201164,593.500423 716.841139,595.060435 C713.481114,596.620447 709.90114,597.800438 706.101112,598.600444 C702.301083,599.40045 698.081114,599.800447 693.441079,599.800447 C688.721044,599.800447 684.301077,599.140452 680.181046,597.820442 C676.061015,596.500432 672.481041,594.520447 669.441018,591.880427 C666.400995,589.240407 663.981013,585.900432 662.181,581.860401 C660.380986,577.820371 659.480993,573.040407 659.480993,567.520365 C659.480993,562.720329 660.800983,558.100363 663.441003,553.66033 C666.081023,549.220296 670.340991,545.280326 676.221036,541.8403 C682.10108,538.400274 689.801023,535.580295 699.321094,533.380278 C708.841166,531.180262 720.481079,529.920271 734.241183,529.600269 L734.241183,520.120244 C734.241183,510.680173 732.221198,503.540226 728.181168,498.70019 C724.141137,493.860153 718.161182,491.440172 710.241122,491.440172 C705.041083,491.440172 700.661116,492.100167 697.101089,493.420177 C693.541062,494.740187 690.461085,496.220175 687.861065,497.860188 C685.261046,499.5002 683.021062,500.980189 681.141048,502.300199 C679.261034,503.620209 677.401048,504.280204 675.561034,504.280204 C674.121023,504.280204 672.861032,503.900207 671.781024,503.140201 C670.701016,502.380196 669.841023,501.440203 669.201018,500.320194 L665.361008,493.480177 C672.081059,487.000128 679.321005,482.160164 687.081063,478.96014 C694.841122,475.760116 703.441058,474.160128 712.881129,474.160128 C719.68118,474.160128 725.721135,475.280119 731.001175,477.520136 C736.281215,479.760153 740.721182,482.88013 744.321209,486.88016 C747.921236,490.88019 750.641216,495.720154 752.48123,501.400197 C754.321243,507.08024 755.241237,513.320193 755.241237,520.120244 L755.241237,597.880442 Z M699.801096,584.800409 C703.561124,584.800409 707.001098,584.420412 710.121122,583.660406 C713.241145,582.9004 716.181123,581.820408 718.941144,580.420398 C721.701165,579.020387 724.341145,577.3204 726.861164,575.320385 C729.381183,573.32037 731.841165,571.040387 734.241183,568.480367 L734.241183,543.160303 C724.401109,543.480305 716.041171,544.2603 709.161119,545.500309 C702.281067,546.740318 696.681109,548.360306 692.361077,550.360321 C688.041044,552.360336 684.901067,554.720319 682.941053,557.440339 C680.981038,560.16036 680.001045,563.200337 680.001045,566.560363 C680.001045,569.760387 680.521041,572.520366 681.561049,574.840384 C682.601057,577.160401 684.001047,579.060387 685.76106,580.540398 C687.521073,582.020409 689.601058,583.100401 692.001076,583.780406 C694.401094,584.460411 697.001074,584.800409 699.801096,584.800409 L699.801096,584.800409 Z" id="Casa" fill="#FFFFFF" sketch:type="MSShapeGroup"></path>
        </g>
    </g>
</svg>