<?xml version="1.0" encoding="UTF-8" standalone="no"?>
<svg width="1024px" height="1024px" viewBox="0 0 1024 1024" version="1.1" xmlns="http://www.w3.org/2000/svg" xmlns:xlink="http://www.w3.org/1999/xlink" xmlns:sketch="http://www.bohemiancoding.com/sketch/ns">
    <!-- Generator: Sketch Beta 3.4 (15009) - http://www.bohemiancoding.com/sketch -->
    <title>website_icon</title>
    <desc>Created with Sketch Beta.</desc>
    <defs></defs>
    <g id="Page-1" stroke="none" stroke-width="1" fill="none" fill-rule="evenodd" sketch:type="MSPage">
        <g id="website_icon" sketch:type="MSArtboardGroup" fill="#FFFFFF">
            <path d="M351.057885,584.253877 C352.901237,584.253877 354.57175,585.002727 356.069474,586.500451 L369.203294,600.843965 C359.064856,612.595337 346.766424,621.754357 332.307628,628.3213 C317.848833,634.888243 300.423654,638.171665 280.031568,638.171665 C262.174092,638.171665 245.987396,635.089856 231.470996,628.926147 C216.954596,622.762437 204.569758,614.121852 194.31611,603.004133 C184.062462,591.886414 176.113124,578.551112 170.467858,562.997826 C164.822591,547.44454 162,530.336182 162,511.672239 C162,493.008296 165.024205,475.899938 171.072705,460.346652 C177.121205,444.793367 185.61778,431.429262 196.562685,420.253938 C207.507589,409.078614 220.612476,400.409228 235.877738,394.245518 C251.143,388.081809 267.992141,385 286.425665,385 C304.62877,385 320.325832,387.822591 333.517322,393.467858 C346.708813,399.113124 358.431206,406.774443 368.684854,416.452043 L357.797608,431.832438 C356.991142,432.984533 356.069479,433.934997 355.032594,434.683859 C353.995708,435.432721 352.498006,435.807146 350.539445,435.807146 C349.041721,435.807146 347.457614,435.259909 345.787075,434.165419 C344.116537,433.070928 342.129203,431.717237 339.825012,430.104303 C337.520822,428.49137 334.813439,426.763253 331.702781,424.919901 C328.592124,423.076548 324.905475,421.348431 320.642722,419.735498 C316.37997,418.122565 311.426035,416.768873 305.780768,415.674383 C300.135501,414.579892 293.626261,414.032655 286.252851,414.032655 C273.003756,414.032655 260.878135,416.308009 249.875626,420.858785 C238.873116,425.409562 229.397275,431.89 221.447818,440.300295 C213.49836,448.710591 207.305941,458.964085 202.870375,471.061085 C198.434808,483.158085 196.217058,496.695001 196.217058,511.672239 C196.217058,527.110315 198.434808,540.877647 202.870375,552.974647 C207.305941,565.071647 213.354351,575.296339 221.015784,583.64903 C228.677217,592.00172 237.749831,598.366951 248.233898,602.744913 C258.717965,607.122875 270.008329,609.311823 282.105329,609.311823 C289.478739,609.311823 296.103187,608.879794 301.978873,608.015722 C307.854558,607.151651 313.298127,605.797959 318.309741,603.954607 C323.321355,602.111255 327.987271,599.778297 332.307628,596.955663 C336.627986,594.13303 340.97708,590.763202 345.355042,586.846078 C347.313604,585.117935 349.214532,584.253877 351.057885,584.253877 L351.057885,584.253877 Z M537.005128,635.40665 L523.352868,635.40665 C520.35742,635.40665 517.938056,634.945819 516.094704,634.024143 C514.251351,633.102466 513.04167,631.143934 512.465622,628.148486 L509.009354,611.904024 C504.400973,616.051567 499.907868,619.767019 495.529907,623.05049 C491.151945,626.333962 486.543633,629.098949 481.704833,631.345535 C476.866033,633.59212 471.710484,635.291435 466.238031,636.443531 C460.765579,637.595626 454.688368,638.171665 448.006215,638.171665 C441.208853,638.171665 434.843622,637.2212 428.910332,635.320243 C422.977041,633.419286 417.821492,630.567893 413.443531,626.765979 C409.065569,622.964065 405.580533,618.154139 402.988318,612.336058 C400.396104,606.517977 399.100016,599.634311 399.100016,591.684854 C399.100016,584.772282 401.000945,578.119032 404.802859,571.724904 C408.604774,565.330775 414.739589,559.656791 423.207489,554.702781 C431.675389,549.748772 442.764139,545.687697 456.474073,542.519435 C470.184006,539.351173 486.946741,537.53665 506.762779,537.075812 L506.762779,523.423552 C506.762779,509.828828 503.853782,499.546532 498.035701,492.576356 C492.21762,485.60618 483.605837,482.121144 472.200094,482.121144 C464.711475,482.121144 458.403848,483.071608 453.277025,484.972565 C448.150201,486.873522 443.714701,489.004867 439.970391,491.366662 C436.226081,493.728457 433.000263,495.859801 430.292839,497.760759 C427.585415,499.661716 424.906834,500.61218 422.257015,500.61218 C420.183244,500.61218 418.368721,500.064943 416.813392,498.970453 C415.258064,497.875962 414.01958,496.52227 413.097904,494.909337 L407.567874,485.058972 C417.245474,475.727 427.67178,468.756929 438.847104,464.148548 C450.022428,459.540167 462.407266,457.236011 476.00199,457.236011 C485.794799,457.236011 494.492988,458.84892 502.096817,462.074787 C509.700645,465.300653 516.094678,469.793757 521.279107,475.554234 C526.463535,481.31471 530.3806,488.284782 533.030419,496.464658 C535.680238,504.644534 537.005128,513.630742 537.005128,523.423552 L537.005128,635.40665 Z M457.165327,616.569987 C462.580174,616.569987 467.53411,616.02275 472.027281,614.928259 C476.520452,613.833769 480.754339,612.278464 484.729068,610.262297 C488.703796,608.24613 492.505653,605.797965 496.134753,602.917726 C499.763854,600.037488 503.306493,596.754066 506.762779,593.067361 L506.762779,556.603729 C492.592007,557.064567 480.552793,558.187843 470.644774,559.973591 C460.736754,561.759338 452.672209,564.092296 446.450894,566.972534 C440.22958,569.852773 435.707674,573.251403 432.885041,577.168526 C430.062407,581.08565 428.651112,585.463547 428.651112,590.302347 C428.651112,594.910728 429.399962,598.885397 430.897686,602.226473 C432.39541,605.567549 434.411547,608.303734 436.946156,610.43511 C439.480766,612.566487 442.476168,614.121792 445.932454,615.101073 C449.38874,616.080354 453.132993,616.569987 457.165327,616.569987 L457.165327,616.569987 Z M683.896538,489.206494 C682.514023,491.741104 680.382679,493.008389 677.502441,493.008389 C675.774298,493.008389 673.815766,492.374747 671.626785,491.107442 C669.437804,489.840137 666.759222,488.428841 663.59096,486.873513 C660.422698,485.318184 656.649643,483.878087 652.271681,482.553177 C647.893719,481.228268 642.709368,480.565823 636.718473,480.565823 C631.534045,480.565823 626.868129,481.228268 622.720586,482.553177 C618.573043,483.878087 615.030403,485.69261 612.09256,487.9968 C609.154717,490.300991 606.908165,492.979572 605.352837,496.032624 C603.797508,499.085677 603.019856,502.397901 603.019856,505.969396 C603.019856,510.462568 604.315943,514.206821 606.908158,517.202269 C609.500372,520.197716 612.927804,522.789892 617.190556,524.978873 C621.453309,527.167854 626.292036,529.097584 631.706884,530.768122 C637.121732,532.43866 642.680508,534.224381 648.383379,536.125338 C654.086251,538.026296 659.645027,540.128838 665.059875,542.433028 C670.474722,544.737219 675.31345,547.617414 679.576202,551.0737 C683.838954,554.529985 687.266386,558.763872 689.858601,563.775486 C692.450815,568.7871 693.746903,574.806708 693.746903,581.834489 C693.746903,589.899156 692.306805,597.35886 689.426567,604.213827 C686.546329,611.068794 682.283641,617.001995 676.638374,622.01361 C670.993107,627.025224 664.080639,630.971091 655.900763,633.851329 C647.720887,636.731567 638.273848,638.171665 627.559362,638.171665 C615.347152,638.171665 604.287204,636.18433 594.379184,632.209602 C584.471165,628.234873 576.060996,623.136928 569.148425,616.915614 L576.406588,605.164301 C577.328265,603.666577 578.422739,602.514499 579.690044,601.708033 C580.957348,600.901566 582.627861,600.498339 584.701633,600.498339 C586.775404,600.498339 588.964352,601.304793 591.268543,602.917726 C593.572733,604.53066 596.366522,606.316381 599.649994,608.274943 C602.933465,610.233505 606.908134,612.019225 611.57412,613.632159 C616.240106,615.245092 622.086902,616.051547 629.114683,616.051547 C635.105578,616.051547 640.347533,615.273894 644.840704,613.718565 C649.333875,612.163237 653.078129,610.060695 656.073577,607.410875 C659.069024,604.761056 661.286774,601.70805 662.726893,598.251764 C664.167012,594.795478 664.887061,591.108829 664.887061,587.191705 C664.887061,582.352905 663.590973,578.349434 660.998759,575.181172 C658.406545,572.01291 654.979113,569.305527 650.71636,567.058941 C646.453608,564.812355 641.586079,562.853823 636.113626,561.183285 C630.641174,559.512747 625.053596,557.755828 619.350724,555.912475 C613.647853,554.069123 608.060275,551.966581 602.587822,549.604785 C597.11537,547.24299 592.24784,544.276389 587.985088,540.704894 C583.722335,537.133399 580.294903,532.726701 577.702689,527.484667 C575.110475,522.242634 573.814387,515.877403 573.814387,508.388784 C573.814387,501.706632 575.196881,495.283797 577.961909,489.120087 C580.726938,482.956378 584.759211,477.541611 590.058849,472.875626 C595.358487,468.20964 601.867728,464.494188 609.586766,461.72916 C617.305804,458.964131 626.1192,457.581638 636.027219,457.581638 C647.548172,457.581638 657.888072,459.39616 667.047229,463.025261 C676.206386,466.654361 684.126922,471.637098 690.809075,477.973622 L683.896538,489.206494 Z M862.23999,635.40665 L848.58773,635.40665 C845.592282,635.40665 843.172918,634.945819 841.329566,634.024143 C839.486214,633.102466 838.276532,631.143934 837.700484,628.148486 L834.244216,611.904024 C829.635835,616.051567 825.142731,619.767019 820.764769,623.05049 C816.386807,626.333962 811.778495,629.098949 806.939695,631.345535 C802.100895,633.59212 796.945346,635.291435 791.472893,636.443531 C786.000441,637.595626 779.92323,638.171665 773.241077,638.171665 C766.443715,638.171665 760.078485,637.2212 754.145194,635.320243 C748.211904,633.419286 743.056355,630.567893 738.678393,626.765979 C734.300431,622.964065 730.815395,618.154139 728.223181,612.336058 C725.630966,606.517977 724.334879,599.634311 724.334879,591.684854 C724.334879,584.772282 726.235807,578.119032 730.037722,571.724904 C733.839636,565.330775 739.974451,559.656791 748.442351,554.702781 C756.910251,549.748772 767.999002,545.687697 781.708935,542.519435 C795.418869,539.351173 812.181603,537.53665 831.997641,537.075812 L831.997641,523.423552 C831.997641,509.828828 829.088644,499.546532 823.270563,492.576356 C817.452482,485.60618 808.8407,482.121144 797.434957,482.121144 C789.946337,482.121144 783.638711,483.071608 778.511887,484.972565 C773.385063,486.873522 768.949563,489.004867 765.205253,491.366662 C761.460944,493.728457 758.235125,495.859801 755.527701,497.760759 C752.820278,499.661716 750.141696,500.61218 747.491877,500.61218 C745.418106,500.61218 743.603583,500.064943 742.048254,498.970453 C740.492926,497.875962 739.254442,496.52227 738.332766,494.909337 L732.802736,485.058972 C742.480336,475.727 752.906642,468.756929 764.081966,464.148548 C775.25729,459.540167 787.642128,457.236011 801.236852,457.236011 C811.029661,457.236011 819.72785,458.84892 827.331679,462.074787 C834.935507,465.300653 841.32954,469.793757 846.513969,475.554234 C851.698397,481.31471 855.615462,488.284782 858.265282,496.464658 C860.915101,504.644534 862.23999,513.630742 862.23999,523.423552 L862.23999,635.40665 Z M782.400189,616.569987 C787.815036,616.569987 792.768972,616.02275 797.262143,614.928259 C801.755315,613.833769 805.989201,612.278464 809.96393,610.262297 C813.938658,608.24613 817.740516,605.797965 821.369616,602.917726 C824.998716,600.037488 828.541355,596.754066 831.997641,593.067361 L831.997641,556.603729 C817.82687,557.064567 805.787655,558.187843 795.879636,559.973591 C785.971617,561.759338 777.907071,564.092296 771.685757,566.972534 C765.464442,569.852773 760.942536,573.251403 758.119903,577.168526 C755.297269,581.08565 753.885974,585.463547 753.885974,590.302347 C753.885974,594.910728 754.634825,598.885397 756.132548,602.226473 C757.630272,605.567549 759.646409,608.303734 762.181018,610.43511 C764.715628,612.566487 767.711031,614.121792 771.167316,615.101073 C774.623602,616.080354 778.367855,616.569987 782.400189,616.569987 L782.400189,616.569987 Z" id="Casa" sketch:type="MSShapeGroup"></path>
        </g>
    </g>
</svg>